<?xml version="1.0" encoding="UTF-8"?>
<svg version="1.1" xmlns="http://www.w3.org/2000/svg" width="1080" height="1080">
<path d="M0 0 C356.4 0 712.8 0 1080 0 C1080 356.4 1080 712.8 1080 1080 C723.6 1080 367.2 1080 0 1080 C0 723.6 0 367.2 0 0 Z " fill="#FEFEFE" transform="translate(0,0)"/>
<path d="M0 0 C0.556875 0.495 1.11375 0.99 1.6875 1.5 C1.6875 2.16 1.6875 2.82 1.6875 3.5 C2.2959375 3.066875 2.904375 2.63375 3.53125 2.1875 C11.88618787 -3.12034288 19.09365875 -3.7185934 28.6875 -2.5 C33.2044142 -1.08712636 36.24318872 1.44792935 38.6875 5.5 C39.04826355 8.33477783 39.04826355 8.33477783 39.02807617 11.64550781 C39.02784958 12.88649231 39.02762299 14.12747681 39.02738953 15.40606689 C39.01207089 16.75508995 38.99642293 18.10410931 38.98046875 19.453125 C38.97487075 20.8374587 38.97060161 22.22179836 38.96760559 23.60614014 C38.95617272 27.24276247 38.92671946 30.87902311 38.89349365 34.51550293 C38.86275887 38.22903552 38.84909301 41.94262677 38.83398438 45.65625 C38.80184782 52.93766456 38.75067087 60.21878153 38.6875 67.5 C35.3875 67.5 32.0875 67.5 28.6875 67.5 C28.67941315 66.80731018 28.67132629 66.11462036 28.66299438 65.40093994 C28.57700935 58.19842002 28.47750808 50.99617723 28.37011719 43.79394531 C28.33071989 41.1051811 28.29613212 38.4164185 28.265625 35.72753906 C28.22001623 31.86504669 28.16201385 28.00291003 28.1015625 24.140625 C28.09001129 22.9363385 28.07846008 21.732052 28.06655884 20.49127197 C28.04668915 19.37041199 28.02681946 18.249552 28.00634766 17.09472656 C27.99302399 16.10877502 27.97970032 15.12282349 27.9659729 14.10699463 C27.67774479 11.40867416 27.14986593 9.77124472 25.6875 7.5 C21.66852424 5.13589661 17.24520784 4.75970694 12.6875 5.5 C8.93537724 7.51502889 7.05105905 8.95466142 4.6875 12.5 C4.35928368 15.02506703 4.35928368 15.02506703 4.36865234 17.8894043 C4.34878265 18.99031906 4.32891296 20.09123383 4.30844116 21.22550964 C4.29111435 23.00687065 4.29111435 23.00687065 4.2734375 24.82421875 C4.25407135 26.04075638 4.2347052 27.25729401 4.2147522 28.51069641 C4.15488979 32.40289257 4.10854382 36.29511819 4.0625 40.1875 C4.02432641 42.82358073 3.98527505 45.45964891 3.9453125 48.09570312 C3.8491827 54.56369078 3.76415461 61.03175382 3.6875 67.5 C0.3875 67.5 -2.9125 67.5 -6.3125 67.5 C-6.31836624 66.80953079 -6.32423248 66.11906158 -6.33027649 65.40766907 C-6.3942108 58.2211349 -6.47863123 51.03504852 -6.57495117 43.84887695 C-6.60985011 41.16693399 -6.6374887 38.48506199 -6.65893555 35.80297852 C-6.69247146 31.94777567 -6.74478927 28.09321525 -6.80078125 24.23828125 C-6.80717117 23.03915604 -6.8135611 21.84003082 -6.82014465 20.60456848 C-6.83993881 19.48378403 -6.85973297 18.36299957 -6.88012695 17.20825195 C-6.89678154 15.73265556 -6.89678154 15.73265556 -6.91377258 14.22724915 C-7.38436485 11.00845277 -8.37046524 9.09401357 -10.3125 6.5 C-12.87001702 5.82031971 -12.87001702 5.82031971 -15.6875 6.0625 C-17.09128906 6.09537109 -17.09128906 6.09537109 -18.5234375 6.12890625 C-22.7897124 6.69654787 -25.74673526 8.12282351 -29.3125 10.5 C-29.7900567 13.00060109 -29.7900567 13.00060109 -29.74487305 15.95947266 C-29.76466721 17.10050446 -29.78446136 18.24153625 -29.80485535 19.41714478 C-29.81444023 21.27186905 -29.81444023 21.27186905 -29.82421875 23.1640625 C-29.84216995 24.42640717 -29.86012115 25.68875183 -29.87861633 26.98934937 C-29.92370235 30.34642143 -29.95594945 33.70312448 -29.98205566 37.06036377 C-30.01182615 40.48569073 -30.05836835 43.91078481 -30.10351562 47.3359375 C-30.18868347 54.05720574 -30.25538786 60.77843716 -30.3125 67.5 C-33.9425 67.5 -37.5725 67.5 -41.3125 67.5 C-41.3125 44.73 -41.3125 21.96 -41.3125 -1.5 C-38.3425 -1.5 -35.3725 -1.5 -32.3125 -1.5 C-32.3125 0.48 -32.3125 2.46 -32.3125 4.5 C-31.57644531 4.00628906 -30.84039063 3.51257813 -30.08203125 3.00390625 C-29.10621094 2.36324219 -28.13039063 1.72257812 -27.125 1.0625 C-26.16207031 0.42441406 -25.19914063 -0.21367187 -24.20703125 -0.87109375 C-16.57416215 -5.16651402 -7.25706983 -4.70728854 0 0 Z " fill="#0E0E0E" transform="translate(601.3125,447.5)"/>
<path d="M0 0 C5.19064591 4.76401748 9.54354259 11.87992111 10.00439453 18.9987793 C10.00608643 20.02612183 10.00608643 20.02612183 10.0078125 21.07421875 C10.00974609 22.19860352 10.00974609 22.19860352 10.01171875 23.34570312 C10.00785156 24.11849609 10.00398437 24.89128906 10 25.6875 C10.00580078 26.8640918 10.00580078 26.8640918 10.01171875 28.06445312 C10.00167749 33.87332251 10.00167749 33.87332251 8.875 35 C5.84522196 35.08871273 2.83832978 35.1151935 -0.19140625 35.09765625 C-1.10002914 35.0962413 -2.00865204 35.09482635 -2.94480896 35.09336853 C-5.85907221 35.08775193 -8.77325981 35.07519665 -11.6875 35.0625 C-13.65820202 35.05748714 -15.62890524 35.05292386 -17.59960938 35.04882812 C-22.44143559 35.03777711 -27.28320495 35.02050138 -32.125 35 C-31.68468235 37.40168123 -31.23404872 39.80064716 -30.77734375 42.19921875 C-30.6546814 42.87432495 -30.53201904 43.54943115 -30.40563965 44.24499512 C-29.27259576 50.12142971 -27.52865786 55.69256528 -22.390625 59.17578125 C-16.82713289 61.19974131 -9.29838488 61.09391479 -3.72265625 59.171875 C-1.19843087 57.74165851 0.82772308 56.04727692 2.875 54 C6 54.375 6 54.375 8.875 55 C7.72747985 59.87696062 4.89209309 61.84627025 1.04296875 64.66796875 C-4.30187447 67.95191747 -8.79771903 68.36485998 -14.9375 68.375 C-15.70642578 68.39949219 -16.47535156 68.42398438 -17.26757812 68.44921875 C-24.20897063 68.48436504 -29.04692934 66.35884827 -34.515625 62.16796875 C-42.40326885 53.76663381 -44.27588938 43.49031405 -44.5625 32.3125 C-44.15349623 20.43899655 -41.97481706 11.37386051 -33.125 3 C-23.0204319 -4.43829526 -11.09904202 -7.10338689 0 0 Z " fill="#131313" transform="translate(698.125,448)"/>
<path d="M0 0 C6.0345899 4.40889219 8.43995278 9.57912431 11.8125 16.32421875 C11.8125 22.92421875 11.8125 29.52421875 11.8125 36.32421875 C-1.7175 36.32421875 -15.2475 36.32421875 -29.1875 36.32421875 C-27.41790425 50.43082171 -27.41790425 50.43082171 -19.1875 60.32421875 C-14.51269062 62.66162344 -8.25699865 61.8411742 -3.1875 61.32421875 C-0.73350846 60.28800586 1.08718468 59.16491033 3.1640625 57.515625 C5.05583493 56.14834872 6.51032689 55.65779894 8.8125 55.32421875 C9.8025 55.81921875 9.8025 55.81921875 10.8125 56.32421875 C10.75 58.51171875 10.75 58.51171875 9.8125 61.32421875 C2.18669436 68.44163734 -8.27389597 69.99521301 -18.43359375 69.6640625 C-25.74552264 68.76173936 -30.15361889 64.99999447 -34.71484375 59.41015625 C-42.42205066 48.49331676 -41.34580613 33.03998826 -40.1875 20.32421875 C-38.67277316 13.05958246 -34.17041437 7.22680806 -28.3828125 2.7265625 C-19.55395971 -2.91322069 -9.52654495 -5.473922 0 0 Z " fill="#131313" transform="translate(407.1875,446.67578125)"/>
<path d="M0 0 C3.3 0 6.6 0 10 0 C10.01458252 1.40693115 10.02916504 2.8138623 10.04418945 4.26342773 C10.10242818 9.51367839 10.17965923 14.76351161 10.26245117 20.01342773 C10.29558052 22.27996006 10.32364928 24.54657251 10.34643555 26.81323242 C10.38020235 30.08286488 10.43252972 33.35177098 10.48828125 36.62109375 C10.49467117 37.62458359 10.5010611 38.62807343 10.50764465 39.66197205 C10.63773543 45.97334401 11.6831684 51.13901028 14 57 C14.33 57.99 14.66 58.98 15 60 C20.4699508 62.14532474 28.00304883 61.93567873 33.52734375 60.2109375 C35.95295101 59.12376771 35.95295101 59.12376771 39 57 C40.00685387 53.97943839 40.15372686 51.86445386 40.20532227 48.70239258 C40.22526749 47.62149857 40.24521271 46.54060455 40.26576233 45.42695618 C40.28247482 44.26125595 40.29918732 43.09555573 40.31640625 41.89453125 C40.33718735 40.70018967 40.35796844 39.50584808 40.37937927 38.27531433 C40.44484276 34.45443557 40.5037451 30.63348724 40.5625 26.8125 C40.60568824 24.22460214 40.64930263 21.63671135 40.69335938 19.04882812 C40.80052095 12.69929032 40.90179764 6.34968244 41 0 C44.3 0 47.6 0 51 0 C51 22.77 51 45.54 51 69 C48.03 69 45.06 69 42 69 C41.67 67.35 41.34 65.7 41 64 C40.30777344 64.433125 39.61554687 64.86625 38.90234375 65.3125 C29.77181117 70.50932487 20.98838875 71.83247381 10.72265625 69.140625 C6.15772132 67.22819889 4.07370925 63.58517591 1.3737793 59.59912109 C-0.70232036 54.16001303 -0.36780414 48.93463734 -0.29296875 43.1640625 C-0.28872391 41.92957367 -0.28447906 40.69508484 -0.28010559 39.42318726 C-0.26334731 35.49023394 -0.22569883 31.55779779 -0.1875 27.625 C-0.1707574 24.95443458 -0.15876183 22.28387401 -0.14648438 19.61328125 C-0.11345298 13.07534514 -0.06328112 6.53770953 0 0 Z " fill="#090909" transform="translate(489,446)"/>
<path d="M0 0 C0.93328125 -0.02449219 1.8665625 -0.04898437 2.828125 -0.07421875 C8.68932329 -0.09912469 12.24529712 0.32885065 16.625 4.375 C17 7.625 17 7.625 16.625 10.375 C10 9.625 10 9.625 6.625 7.375 C0.20187784 6.66131976 -5.91996893 6.54173493 -11.375 10.375 C-12.94712151 13.51924302 -12.8929375 16.95291292 -12.375 20.375 C-10.87319896 24.2723865 -9.01048901 25.77435637 -5.35546875 27.5078125 C-3.76444107 28.18760321 -2.16643377 28.85124661 -0.5625 29.5 C1.02782836 30.16811848 2.61768228 30.83736753 4.20703125 31.5078125 C4.9642749 31.82524414 5.72151855 32.14267578 6.50170898 32.46972656 C12.53189988 35.04072206 15.80500073 37.13614386 19.625 42.375 C21.61421508 48.34264523 21.2343116 54.64997224 18.80859375 60.453125 C15.78195027 65.36767481 10.87236463 69.08224068 5.625 71.375 C-3.36026261 72.72483296 -13.7537629 72.66637751 -21.609375 67.8046875 C-24.00799421 65.86244274 -25.45881916 64.35258772 -26.375 61.375 C-25.5625 59.0625 -25.5625 59.0625 -24.375 57.375 C-21.33342534 58.48102715 -18.99347768 59.63972978 -16.3125 61.5 C-11.35164944 64.40470855 -5.93386753 64.01492511 -0.375 63.375 C2.99946295 62.21139209 4.76966239 61.42473252 7 58.6875 C8.22467025 54.15622006 8.3417293 48.78401892 6.625 44.375 C4.54962503 43.07056171 4.54962503 43.07056171 1.92578125 42.19140625 C0.96349609 41.82080078 0.00121094 41.45019531 -0.99023438 41.06835938 C-2.00408203 40.69517578 -3.01792969 40.32199219 -4.0625 39.9375 C-18.59872954 34.53940568 -18.59872954 34.53940568 -23.375 27.375 C-23.67578125 23.9765625 -23.67578125 23.9765625 -23.6875 20 C-23.70425781 18.69289063 -23.72101563 17.38578125 -23.73828125 16.0390625 C-23.20285745 10.63876654 -21.3803156 8.29475683 -17.4375 4.6875 C-11.48994385 0.19648821 -7.29814522 0.00999746 0 0 Z " fill="#0D0D0D" transform="translate(455.375,444.625)"/>
<path d="M0 0 C0.66 0.33 1.32 0.66 2 1 C2 3.64 2 6.28 2 9 C1.04738281 8.96519531 0.09476562 8.93039062 -0.88671875 8.89453125 C-2.14097656 8.86746094 -3.39523437 8.84039062 -4.6875 8.8125 C-5.92886719 8.77769531 -7.17023438 8.74289062 -8.44921875 8.70703125 C-12.29832215 9.02461404 -14.0171811 9.5918047 -17 12 C-19.5396805 15.5802215 -20.38022131 18.0625461 -20.43237305 22.43286133 C-20.45216721 23.49358353 -20.47196136 24.55430573 -20.49235535 25.64717102 C-20.50194023 27.34742683 -20.50194023 27.34742683 -20.51171875 29.08203125 C-20.52966995 30.25134689 -20.54762115 31.42066254 -20.56611633 32.62541199 C-20.62023057 36.35440482 -20.65411968 40.08326954 -20.6875 43.8125 C-20.72067197 46.34311679 -20.75516151 48.87371667 -20.79101562 51.40429688 C-20.8759582 57.60277219 -20.94276483 63.80120942 -21 70 C-24.3 70 -27.6 70 -31 70 C-31 47.23 -31 24.46 -31 1 C-28.69 1 -26.38 1 -24 1 C-23.67 3.97 -23.34 6.94 -23 10 C-22.29875 9.278125 -21.5975 8.55625 -20.875 7.8125 C-20.17697266 7.13574219 -20.17697266 7.13574219 -19.46484375 6.4453125 C-18.07421045 5.07322098 -16.75322026 3.63158321 -15.4375 2.1875 C-11.1266601 -1.4218384 -5.2841662 -0.55372999 0 0 Z " fill="#0B0B0B" transform="translate(358,445)"/>
<path d="M0 0 C6.21080711 2.86926813 7.54827201 6.76560596 10 13 C10 16.96 10 20.92 10 25 C-0.89 25 -11.78 25 -23 25 C-23 8.84568859 -23 8.84568859 -17.125 2.5625 C-12.19316611 -1.37875187 -5.98000484 -0.9764818 0 0 Z " fill="#DDDDDD" transform="translate(689,451)"/>
<path d="M0 0 C3.70402421 1.83787461 5.71935195 4.57902793 8 8 C8.22705078 9.90112305 8.22705078 9.90112305 8.1953125 12.01171875 C8.19031738 12.69451904 8.18532227 13.37731934 8.18017578 14.08081055 C8.16196777 14.94101807 8.14375977 15.80122559 8.125 16.6875 C8.08375 19.430625 8.0425 22.17375 8 25 C-2.56 25 -13.12 25 -24 25 C-24 10.61538462 -24 10.61538462 -18.5625 4.0625 C-12.76276719 -0.60557763 -7.31421587 -0.97783635 0 0 Z " fill="#DDDDDD" transform="translate(401,451)"/>
<path d="M0 0 C1.875 1.125 1.875 1.125 3 3 C3.54068562 6.63031776 3.46379841 8.32214079 1.375 11.375 C-1.64835963 13.44361448 -3.40588208 13.46879799 -7 13 C-9.42522207 10.57477793 -9.29629254 9.8279321 -9.3125 6.5 C-9.32925781 5.7059375 -9.34601562 4.911875 -9.36328125 4.09375 C-9.18345703 3.05734375 -9.18345703 3.05734375 -9 2 C-5.53076119 -0.31282587 -4.07794425 -0.42478586 0 0 Z " fill="#6927EB" transform="translate(732,503)"/>
</svg>
